<svg width="488" height="326" viewBox="0 0 488 326" fill="none" xmlns="http://www.w3.org/2000/svg">
<g clip-path="url(#clip0_18_31)">
<path d="M359.319 0.20343H0.153358V230.007H359.319V0.20343Z" fill="#E6E6E6"/>
<path d="M349.048 29.0265H10.4236V116.629H349.048V29.0265Z" fill="white"/>
<path d="M166.265 41.6803H94.6533V45.7871H166.265V41.6803Z" fill="#E6E6E6"/>
<path d="M205.237 56.6608H94.6533V60.7676H205.237V56.6608Z" fill="#B20823"/>
<path d="M184.777 70.7746H94.6533V74.8814H184.777V70.7746Z" fill="#E6E6E6"/>
<path d="M147.266 84.8351H94.6533V88.9419H147.266V84.8351Z" fill="#E6E6E6"/>
<path d="M174.059 98.8956H94.6533V103.002H174.059V98.8956Z" fill="#E6E6E6"/>
<path d="M70.7828 40.2202H62.014V48.9805H70.7828V40.2202Z" fill="#E6E6E6"/>
<path d="M70.7828 54.334H62.014V63.0943H70.7828V54.334Z" fill="#B20823"/>
<path d="M70.7828 68.4479H62.014V77.2082H70.7828V68.4479Z" fill="#E6E6E6"/>
<path d="M70.7828 82.5617H62.014V91.322H70.7828V82.5617Z" fill="#E6E6E6"/>
<path d="M70.7828 96.6755H62.014V105.436H70.7828V96.6755Z" fill="#E6E6E6"/>
<path d="M301.693 60.1743H272.464V89.3753H301.693V60.1743Z" fill="#E6E6E6"/>
<path d="M349.048 128.797H10.4236V216.4H349.048V128.797Z" fill="white"/>
<path d="M85.8845 136.582H77.1158V145.343H85.8845V136.582Z" fill="#E6E6E6"/>
<path d="M70.7828 136.582H62.014V145.343H70.7828V136.582Z" fill="#B20823"/>
<path d="M210.69 155.739C208.017 151.219 204.309 147.397 199.869 144.587C195.43 141.778 190.387 140.061 185.154 139.578C179.921 139.095 174.648 139.86 169.769 141.809C164.89 143.759 160.543 146.838 157.087 150.792L154.95 148.927C158.701 144.633 163.419 141.291 168.715 139.174C174.011 137.057 179.734 136.227 185.415 136.751C191.095 137.275 196.569 139.139 201.388 142.189C206.206 145.239 210.231 149.388 213.132 154.295L210.69 155.739Z" fill="#E6E6E6"/>
<path d="M212.027 192.672L209.672 191.09C213.16 185.893 215.106 179.816 215.286 173.562C215.466 167.307 213.873 161.128 210.69 155.739L213.132 154.295C216.588 160.145 218.319 166.853 218.123 173.643C217.928 180.433 215.814 187.03 212.027 192.672Z" fill="#B20823"/>
<path d="M155.246 196.622C149.38 190.077 146.112 181.615 146.057 172.83C146.003 164.046 149.166 155.544 154.95 148.927L157.087 150.792C151.759 156.888 148.845 164.72 148.895 172.813C148.945 180.906 151.956 188.701 157.36 194.73L155.246 196.622Z" fill="#B20823"/>
<path d="M182.097 208.614C177.03 208.61 172.02 207.54 167.394 205.474C162.767 203.408 158.628 200.392 155.246 196.622L157.36 194.73C160.734 198.496 164.925 201.442 169.612 203.343C174.3 205.244 179.36 206.05 184.407 205.699C189.454 205.347 194.354 203.849 198.733 201.317C203.111 198.785 206.853 195.287 209.672 191.09L212.027 192.672C208.732 197.581 204.278 201.603 199.058 204.383C193.838 207.163 188.013 208.617 182.097 208.614Z" fill="#B20823"/>
<path d="M301.693 155.564H272.464V184.765H301.693V155.564Z" fill="#E6E6E6"/>
<path d="M90.0253 174.545H60.7961V203.746H90.0253V174.545Z" fill="#E6E6E6"/>
<path d="M359.165 0H0V15.2439H359.165V0Z" fill="#B20823"/>
<path d="M11.339 10.6189C12.9009 10.6189 14.1671 9.35391 14.1671 7.79352C14.1671 6.23312 12.9009 4.96817 11.339 4.96817C9.7771 4.96817 8.51093 6.23312 8.51093 7.79352C8.51093 9.35391 9.7771 10.6189 11.339 10.6189Z" fill="white"/>
<path d="M22.0737 10.6189C23.6356 10.6189 24.9017 9.35391 24.9017 7.79352C24.9017 6.23312 23.6356 4.96817 22.0737 4.96817C20.5118 4.96817 19.2456 6.23312 19.2456 7.79352C19.2456 9.35391 20.5118 10.6189 22.0737 10.6189Z" fill="white"/>
<path d="M32.8083 10.6189C34.3702 10.6189 35.6364 9.35391 35.6364 7.79352C35.6364 6.23312 34.3702 4.96817 32.8083 4.96817C31.2464 4.96817 29.9802 6.23312 29.9802 7.79352C29.9802 9.35391 31.2464 10.6189 32.8083 10.6189Z" fill="white"/>
<path d="M417.152 318.085H424.423L427.883 290.066L417.151 290.066L417.152 318.085Z" fill="#FFB8B8"/>
<path d="M415.298 315.713L429.617 315.713H429.618C432.038 315.713 434.359 316.673 436.07 318.383C437.782 320.093 438.743 322.411 438.743 324.829V325.126L415.298 325.126L415.298 315.713Z" fill="#2F2E41"/>
<path d="M399.043 290.577L404.409 295.479L425.89 277.136L417.971 269.901L399.043 290.577Z" fill="#FFB8B8"/>
<path d="M399.277 287.576L409.844 297.231L409.844 297.231C411.63 298.863 412.694 301.137 412.802 303.552C412.91 305.968 412.053 308.327 410.42 310.111L410.219 310.33L392.918 294.523L399.277 287.576Z" fill="#2F2E41"/>
<path d="M428.581 219.691L426.52 260.867L431.672 305.647L416.216 307.706L406.427 251.088L403.336 212.485L428.581 219.691Z" fill="#2F2E41"/>
<path d="M452.795 204.764C452.795 204.764 458.978 245.426 446.098 258.808C433.218 272.191 415.701 295.867 415.701 295.867L403.336 280.426L434.763 246.97L428.581 224.323L403.336 212.485L407.457 184.176L444.552 183.661L452.795 204.764Z" fill="#2F2E41"/>
<path d="M424.426 110.573C431.394 110.573 437.043 104.929 437.043 97.9669C437.043 91.005 431.394 85.3612 424.426 85.3612C417.457 85.3612 411.808 91.005 411.808 97.9669C411.808 104.929 417.457 110.573 424.426 110.573Z" fill="#FFB8B8"/>
<path d="M434.891 115.883L436.824 118.808L441.976 133.22L437.855 189.323L413.64 189.838L410.549 125.499L417.024 117.413L434.891 115.883Z" fill="#CCCCCC"/>
<path d="M400.76 127.043L396.638 126.529C396.638 126.529 395.608 127.043 395.092 130.646C394.577 134.249 388.395 166.161 388.395 166.161L396.638 205.279L405.912 192.926L400.245 171.308L405.912 149.69L400.76 127.043Z" fill="#2F2E41"/>
<path d="M453.311 126.529H456.402L464.13 168.22L456.917 200.647L449.704 188.808L451.765 175.94L450.735 164.617L447.128 157.925L453.311 126.529Z" fill="#2F2E41"/>
<path d="M431.882 97.9669L429.587 97.3939C429.587 97.3939 427.867 87.6531 423.852 88.7991C419.837 89.9451 409.514 91.091 409.514 86.5071C409.514 81.9232 419.264 77.9123 424.999 78.4853C430.734 79.0583 438.06 80.9592 439.911 89.3721C442.879 102.858 433.787 106.265 433.787 106.265L433.938 105.774C434.358 104.41 434.388 102.957 434.025 101.577C433.662 100.198 432.919 98.9471 431.882 97.9669Z" fill="#2F2E41"/>
<path d="M397.153 126.529L413.64 119.837L417.504 117.006L429.096 168.22L436.824 145.058L434.506 115.462L455.887 126.529L448.674 161.529L447.643 174.911L450.735 185.72C450.735 185.72 461.554 193.441 457.947 201.676C454.341 209.911 450.219 210.426 450.219 210.426C450.219 210.426 432.702 193.955 431.672 189.838C430.642 185.72 429.096 178.514 429.096 178.514C429.096 178.514 420.338 211.455 410.033 210.941C399.729 210.426 399.729 199.617 399.729 199.617L402.305 188.293L406.427 176.455L404.366 156.896L397.153 126.529Z" fill="#2F2E41"/>
<path d="M487.49 326H350.679C350.544 326 350.414 325.946 350.318 325.851C350.223 325.755 350.169 325.625 350.169 325.49C350.169 325.355 350.223 325.225 350.318 325.129C350.414 325.034 350.544 324.98 350.679 324.98H487.49C487.625 324.98 487.755 325.034 487.851 325.129C487.946 325.225 488 325.355 488 325.49C488 325.625 487.946 325.755 487.851 325.851C487.755 325.946 487.625 326 487.49 326Z" fill="#CCCCCC"/>
</g>
<defs>
<clipPath id="clip0_18_31">
<rect width="488" height="326" fill="white"/>
</clipPath>
</defs>
</svg>
